# xmcd
#
# Track frame offsets: 
#        150
#        17500
#        36337
#        59515
#        84392
#        98095
#        115342
#        132312
#        146785
#        168187
#
# Disc length: 2487 seconds
#
# Revision: 3
# Processed by: cddbd v1.5.2PL0 Copyright (c) Steve Scherf et al.
# Submitted via: ExactAudioCopyFreeDBPlugin 1.0
#
DISCID=8309b50a
DTITLE=Urban Turban - Overtime
DYEAR=1996
DGENRE=Blues
TTITLE0=Overtime
TTITLE1=The price we ought to pay
TTITLE2=Fear
TTITLE3=I can't complain - Klagodans
TTITLE4=Persian Night
TTITLE5=Laurel Canyon Home
TTITLE6=Miss James -Contact
TTITLE7=Music Machine
TTITLE8=40 days and 40 nights
TTITLE9=Fly Tomorrow
EXTD=
EXTT0=Bryngelsson
EXTT1=Bryngelsson
EXTT2=Bryngelsson
EXTT3=M. Mayall - Bryngelsson
EXTT4=Bryngelsson
EXTT5=J. Mayall
EXTT6=J. Mayall - Bryngelsson
EXTT7=Bryngelsson - Trad. arr.
EXTT8=B. Ross, C. Perry
EXTT9=J. Mayall
PLAYORDER=
